Fira Mono-Regular.ufo
<glyph name="parenleft" format="1">
  <advance width="600"/>
  <unicode hex="0028"/>
  <outline>
    <contour>
      <point x="258" y="565"/>
      <point x="336" y="672"/>
      <point x="439" y="802" type="curve"/>
      <point x="380" y="842" type="line"/>
      <point x="268" y="709"/>
      <point x="162" y="587"/>
      <point x="162" y="350" type="curve" smooth="yes"/>
      <point x="162" y="113"/>
      <point x="268" y="-9"/>
      <point x="380" y="-142" type="curve"/>
      <point x="439" y="-102" type="line"/>
      <point x="336" y="28"/>
      <point x="258" y="136"/>
      <point x="258" y="350" type="curve" smooth="yes"/>
    </contour>
  </outline>
</glyph>
<glyph name="parenright" format="1">
  <advance width="600"/>
  <unicode hex="0029"/>
  <outline>
    <contour>
      <point x="342" y="136"/>
      <point x="264" y="28"/>
      <point x="161" y="-102" type="curve"/>
      <point x="220" y="-142" type="line"/>
      <point x="332" y="-9"/>
      <point x="438" y="113"/>
      <point x="438" y="350" type="curve" smooth="yes"/>
      <point x="438" y="587"/>
      <point x="332" y="709"/>
      <point x="220" y="842" type="curve"/>
      <point x="161" y="802" type="line"/>
      <point x="264" y="672"/>
      <point x="342" y="565"/>
      <point x="342" y="350" type="curve" smooth="yes"/>
    </contour>
  </outline>
</glyph>
<glyph name="one" format="1">
  <advance width="600"/>
  <unicode hex="0031"/>
  <outline>
    <contour>
      <point x="298" y="689" type="line"/>
      <point x="91" y="561" type="line"/>
      <point x="131" y="496" type="line"/>
      <point x="287" y="591" type="line"/>
      <point x="287" y="20" type="line"/>
      <point x="379" y="20" type="line"/>
      <point x="379" y="689" type="line"/>
    </contour>
    <contour>
      <point x="118" y="74" type="line"/>
      <point x="118" y="0" type="line"/>
      <point x="521" y="0" type="line"/>
      <point x="521" y="74" type="line"/>
    </contour>
  </outline>
</glyph>
<glyph name="three" format="1">
  <advance width="600"/>
  <unicode hex="0033"/>
  <outline>
    <contour>
      <point x="196" y="701"/>
      <point x="128" y="676"/>
      <point x="69" y="620" type="curve"/>
      <point x="119" y="565" type="line"/>
      <point x="164" y="607"/>
      <point x="205" y="628"/>
      <point x="264" y="628" type="curve" smooth="yes"/>
      <point x="335" y="628"/>
      <point x="391" y="588"/>
      <point x="391" y="515" type="curve" smooth="yes"/>
      <point x="391" y="435"/>
      <point x="329" y="398"/>
      <point x="263" y="398" type="curve" smooth="yes"/>
      <point x="222" y="398" type="line"/>
      <point x="211" y="327" type="line"/>
      <point x="269" y="327" type="line" smooth="yes"/>
      <point x="350" y="327"/>
      <point x="409" y="295"/>
      <point x="409" y="199" type="curve" smooth="yes"/>
      <point x="409" y="115"/>
      <point x="353" y="63"/>
      <point x="260" y="63" type="curve" smooth="yes"/>
      <point x="204" y="63"/>
      <point x="147" y="85"/>
      <point x="108" y="131" type="curve"/>
      <point x="48" y="81" type="line"/>
      <point x="101" y="17"/>
      <point x="183" y="-12"/>
      <point x="263" y="-12" type="curve" smooth="yes"/>
      <point x="408" y="-12"/>
      <point x="505" y="79"/>
      <point x="505" y="198" type="curve" smooth="yes"/>
      <point x="505" y="305"/>
      <point x="430" y="360"/>
      <point x="348" y="367" type="curve"/>
      <point x="422" y="382"/>
      <point x="483" y="444"/>
      <point x="483" y="528" type="curve" smooth="yes"/>
      <point x="483" y="622"/>
      <point x="401" y="701"/>
      <point x="269" y="701" type="curve" smooth="yes"/>
    </contour>
  </outline>
</glyph>
<glyph name="at" format="1">
  <advance width="600"/>
  <unicode hex="0040"/>
  <outline>
    <contour>
      <point x="193" y="701"/>
      <point x="98" y="669"/>
      <point x="8" y="591" type="curve"/>
      <point x="58" y="533" type="line"/>
      <point x="142" y="607"/>
      <point x="218" y="625"/>
      <point x="284" y="625" type="curve" smooth="yes"/>
      <point x="465" y="625"/>
      <point x="497" y="477"/>
      <point x="497" y="284" type="curve" smooth="yes"/>
      <point x="497" y="109"/>
      <point x="497" y="-20"/>
      <point x="437" y="-20" type="curve" smooth="yes"/>
      <point x="399" y="-20"/>
      <point x="370" y="4"/>
      <point x="370" y="108" type="curve" smooth="yes"/>
      <point x="370" y="404" type="line"/>
      <point x="314" y="434"/>
      <point x="273" y="442"/>
      <point x="226" y="442" type="curve" smooth="yes"/>
      <point x="100" y="442"/>
      <point x="28" y="356"/>
      <point x="28" y="183" type="curve" smooth="yes"/>
      <point x="28" y="51"/>
      <point x="70" y="-46"/>
      <point x="180" y="-46" type="curve" smooth="yes"/>
      <point x="259" y="-46"/>
      <point x="298" y="4"/>
      <point x="317" y="51" type="curve"/>
      <point x="321" y="51" type="line"/>
      <point x="321" y="-1"/>
      <point x="356" y="-91"/>
      <point x="439" y="-91" type="curve" smooth="yes"/>
      <point x="560" y="-91"/>
      <point x="587" y="34"/>
      <point x="587" y="286" type="curve" smooth="yes"/>
      <point x="587" y="495"/>
      <point x="540" y="701"/>
      <point x="284" y="701" type="curve" smooth="yes"/>
    </contour>
    <contour>
      <point x="252" y="376"/>
      <point x="270" y="372"/>
      <point x="290" y="362" type="curve"/>
      <point x="290" y="107" type="line"/>
      <point x="279" y="78"/>
      <point x="259" y="21"/>
      <point x="192" y="21" type="curve" smooth="yes"/>
      <point x="134" y="21"/>
      <point x="116" y="86"/>
      <point x="116" y="183" type="curve" smooth="yes"/>
      <point x="116" y="312"/>
      <point x="142" y="376"/>
      <point x="229" y="376" type="curve" smooth="yes"/>
    </contour>
  </outline>
</glyph>
<glyph name="B" format="1">
  <advance width="600"/>
  <unicode hex="0042"/>
  <outline>
    <contour>
      <point x="443" y="96"/>
      <point x="362" y="77"/>
      <point x="295" y="77" type="curve" smooth="yes"/>
      <point x="187" y="77" type="line"/>
      <point x="187" y="322" type="line"/>
      <point x="299" y="322" type="line" smooth="yes"/>
      <point x="378" y="322"/>
      <point x="443" y="296"/>
      <point x="443" y="195" type="curve" smooth="yes"/>
    </contour>
    <contour>
      <point x="416" y="431"/>
      <point x="372" y="398"/>
      <point x="292" y="398" type="curve" smooth="yes"/>
      <point x="187" y="398" type="line"/>
      <point x="187" y="614" type="line"/>
      <point x="284" y="614" type="line" smooth="yes"/>
      <point x="366" y="614"/>
      <point x="416" y="585"/>
      <point x="416" y="509" type="curve" smooth="yes"/>
    </contour>
    <contour>
      <point x="543" y="313"/>
      <point x="461" y="352"/>
      <point x="385" y="365" type="curve"/>
      <point x="451" y="380"/>
      <point x="513" y="427"/>
      <point x="513" y="515" type="curve" smooth="yes"/>
      <point x="513" y="650"/>
      <point x="390" y="689"/>
      <point x="267" y="689" type="curve" smooth="yes"/>
      <point x="92" y="689" type="line"/>
      <point x="92" y="0" type="line"/>
      <point x="282" y="0" type="line" smooth="yes"/>
      <point x="411" y="0"/>
      <point x="543" y="46"/>
      <point x="543" y="197" type="curve" smooth="yes"/>
    </contour>
  </outline>
</glyph>
<glyph name="P" format="1">
  <advance width="600"/>
  <unicode hex="0050"/>
  <outline>
    <contour>
      <point x="458" y="361"/>
      <point x="391" y="328"/>
      <point x="298" y="328" type="curve" smooth="yes"/>
      <point x="205" y="328" type="line"/>
      <point x="205" y="615" type="line"/>
      <point x="300" y="615" type="line" smooth="yes"/>
      <point x="392" y="615"/>
      <point x="458" y="578"/>
      <point x="458" y="475" type="curve" smooth="yes"/>
    </contour>
    <contour>
      <point x="559" y="621"/>
      <point x="457" y="689"/>
      <point x="290" y="689" type="curve" smooth="yes"/>
      <point x="110" y="689" type="line"/>
      <point x="110" y="0" type="line"/>
      <point x="205" y="0" type="line"/>
      <point x="205" y="253" type="line"/>
      <point x="292" y="253" type="line" smooth="yes"/>
      <point x="448" y="253"/>
      <point x="559" y="315"/>
      <point x="559" y="476" type="curve" smooth="yes"/>
    </contour>
  </outline>
</glyph>
<glyph name="U" format="1">
  <advance width="600"/>
  <unicode hex="0055"/>
  <outline>
    <contour>
      <point x="435" y="689" type="line"/>
      <point x="435" y="228" type="line" smooth="yes"/>
      <point x="435" y="121"/>
      <point x="388" y="68"/>
      <point x="299" y="68" type="curve" smooth="yes"/>
      <point x="211" y="68"/>
      <point x="164" y="121"/>
      <point x="164" y="228" type="curve" smooth="yes"/>
      <point x="164" y="689" type="line"/>
      <point x="69" y="689" type="line"/>
      <point x="69" y="224" type="line" smooth="yes"/>
      <point x="69" y="84"/>
      <point x="154" y="-12"/>
      <point x="299" y="-12" type="curve" smooth="yes"/>
      <point x="442" y="-12"/>
      <point x="531" y="84"/>
      <point x="531" y="224" type="curve" smooth="yes"/>
      <point x="531" y="689" type="line"/>
    </contour>
    <contour>
      <point x="389" y="0" type="move" name="ogonek"/>
    </contour>
    <contour>
      <point x="300" y="689" type="move" name="top"/>
    </contour>
  </outline>
</glyph>
<glyph name="V" format="1">
  <advance width="600"/>
  <unicode hex="0056"/>
  <outline>
    <contour>
      <point x="124" y="689" type="line"/>
      <point x="22" y="689" type="line"/>
      <point x="249" y="0" type="line"/>
      <point x="351" y="0" type="line"/>
      <point x="578" y="689" type="line"/>
      <point x="482" y="689" type="line"/>
      <point x="302" y="102" type="line"/>
    </contour>
  </outline>
</glyph>
<glyph name="W" format="1">
  <advance width="600"/>
  <unicode hex="0057"/>
  <outline>
    <contour>
      <point x="509" y="689" type="line"/>
      <point x="433" y="112" type="line"/>
      <point x="429" y="112" type="line"/>
      <point x="356" y="609" type="line"/>
      <point x="246" y="609" type="line"/>
      <point x="167" y="109" type="line"/>
      <point x="163" y="109" type="line"/>
      <point x="98" y="689" type="line"/>
      <point x="4" y="689" type="line"/>
      <point x="98" y="0" type="line"/>
      <point x="221" y="0" type="line"/>
      <point x="296" y="503" type="line"/>
      <point x="300" y="503" type="line"/>
      <point x="374" y="0" type="line"/>
      <point x="494" y="0" type="line"/>
      <point x="596" y="689" type="line"/>
    </contour>
    <contour>
      <point x="300" y="689" type="move" name="top"/>
    </contour>
  </outline>
</glyph>
<glyph name="underscore" format="1">
  <advance width="600"/>
  <unicode hex="005F"/>
  <outline>
    <contour>
      <point x="603" y="-182" type="line"/>
      <point x="603" y="-103" type="line"/>
      <point x="-3" y="-103" type="line"/>
      <point x="-3" y="-182" type="line"/>
    </contour>
  </outline>
</glyph>
<glyph name="b" format="1">
  <advance width="600"/>
  <unicode hex="0062"/>
  <outline>
    <contour>
      <point x="189" y="750" type="line"/>
      <point x="97" y="739" type="line"/>
      <point x="97" y="0" type="line"/>
      <point x="178" y="0" type="line"/>
      <point x="184" y="54" type="line"/>
      <point x="219" y="9"/>
      <point x="266" y="-12"/>
      <point x="326" y="-12" type="curve" smooth="yes"/>
      <point x="462" y="-12"/>
      <point x="535" y="104"/>
      <point x="535" y="264" type="curve" smooth="yes"/>
      <point x="535" y="430"/>
      <point x="478" y="539"/>
      <point x="338" y="539" type="curve" smooth="yes"/>
      <point x="278" y="539"/>
      <point x="227" y="510"/>
      <point x="189" y="460" type="curve"/>
    </contour>
    <contour>
      <point x="257" y="61"/>
      <point x="216" y="86"/>
      <point x="189" y="127" type="curve"/>
      <point x="189" y="384" type="line"/>
      <point x="217" y="426"/>
      <point x="260" y="466"/>
      <point x="316" y="466" type="curve" smooth="yes"/>
      <point x="394" y="466"/>
      <point x="436" y="401"/>
      <point x="436" y="264" type="curve" smooth="yes"/>
      <point x="436" y="126"/>
      <point x="388" y="61"/>
      <point x="304" y="61" type="curve" smooth="yes"/>
    </contour>
  </outline>
</glyph>
<glyph name="c" format="1">
  <advance width="600"/>
  <unicode hex="0063"/>
  <outline>
    <contour>
      <point x="252" y="66"/>
      <point x="188" y="123"/>
      <point x="188" y="261" type="curve" smooth="yes"/>
      <point x="188" y="398"/>
      <point x="251" y="463"/>
      <point x="340" y="463" type="curve" smooth="yes"/>
      <point x="386" y="463"/>
      <point x="430" y="447"/>
      <point x="473" y="415" type="curve"/>
      <point x="518" y="477" type="line"/>
      <point x="468" y="518"/>
      <point x="409" y="539"/>
      <point x="340" y="539" type="curve" smooth="yes"/>
      <point x="181" y="539"/>
      <point x="89" y="420"/>
      <point x="89" y="261" type="curve" smooth="yes"/>
      <point x="89" y="96"/>
      <point x="180" y="-12"/>
      <point x="339" y="-12" type="curve" smooth="yes"/>
      <point x="403" y="-12"/>
      <point x="473" y="13"/>
      <point x="519" y="52" type="curve"/>
      <point x="475" y="115" type="line"/>
      <point x="436" y="85"/>
      <point x="392" y="66"/>
      <point x="340" y="66" type="curve" smooth="yes"/>
    </contour>
    <contour>
      <point x="344" y="518" type="move" name="top"/>
    </contour>
    <contour>
      <point x="339" y="0" type="move" name="bottom"/>
    </contour>
    <contour>
      <point x="339" y="0" type="move" name="bottomAttach"/>
    </contour>
  </outline>
</glyph>
<glyph name="e" format="1">
  <advance width="600"/>
  <unicode hex="0065"/>
  <outline>
    <contour>
      <point x="524" y="232" type="line"/>
      <point x="525" y="244"/>
      <point x="526" y="261"/>
      <point x="526" y="279" type="curve" smooth="yes"/>
      <point x="526" y="440"/>
      <point x="443" y="539"/>
      <point x="305" y="539" type="curve" smooth="yes"/>
      <point x="165" y="539"/>
      <point x="75" y="422"/>
      <point x="75" y="263" type="curve" smooth="yes"/>
      <point x="75" y="99"/>
      <point x="163" y="-12"/>
      <point x="320" y="-12" type="curve" smooth="yes"/>
      <point x="388" y="-12"/>
      <point x="455" y="12"/>
      <point x="504" y="51" type="curve"/>
      <point x="462" y="112" type="line"/>
      <point x="417" y="75"/>
      <point x="370" y="63"/>
      <point x="322" y="63" type="curve" smooth="yes"/>
      <point x="242" y="63"/>
      <point x="176" y="114"/>
      <point x="171" y="232" type="curve"/>
    </contour>
    <contour>
      <point x="387" y="466"/>
      <point x="435" y="409"/>
      <point x="437" y="300" type="curve"/>
      <point x="171" y="300" type="line"/>
      <point x="178" y="413"/>
      <point x="233" y="466"/>
      <point x="306" y="466" type="curve" smooth="yes"/>
    </contour>
    <contour>
      <point x="413" y="0" type="move" name="ogonek"/>
    </contour>
    <contour>
      <point x="300" y="0" type="move" name="bottom"/>
    </contour>
    <contour>
      <point x="310" y="527" type="move" name="top"/>
    </contour>
  </outline>
</glyph>
<glyph name="g" format="1">
  <advance width="600"/>
  <unicode hex="0067"/>
  <outline>
    <contour>
      <point x="468" y="558"/>
      <point x="420" y="539"/>
      <point x="289" y="539" type="curve" smooth="yes"/>
      <point x="163" y="539"/>
      <point x="76" y="463"/>
      <point x="76" y="355" type="curve" smooth="yes"/>
      <point x="76" y="287"/>
      <point x="104" y="241"/>
      <point x="165" y="209" type="curve"/>
      <point x="127" y="184"/>
      <point x="107" y="150"/>
      <point x="107" y="116" type="curve" smooth="yes"/>
      <point x="107" y="63"/>
      <point x="149" y="16"/>
      <point x="243" y="16" type="curve" smooth="yes"/>
      <point x="336" y="16" type="line" smooth="yes"/>
      <point x="402" y="16"/>
      <point x="450" y="-9"/>
      <point x="450" y="-57" type="curve" smooth="yes"/>
      <point x="450" y="-112"/>
      <point x="402" y="-141"/>
      <point x="288" y="-141" type="curve" smooth="yes"/>
      <point x="172" y="-141"/>
      <point x="145" y="-113"/>
      <point x="145" y="-53" type="curve"/>
      <point x="62" y="-53" type="line"/>
      <point x="62" y="-160"/>
      <point x="116" y="-213"/>
      <point x="288" y="-213" type="curve" smooth="yes"/>
      <point x="451" y="-213"/>
      <point x="543" y="-155"/>
      <point x="543" y="-51" type="curve" smooth="yes"/>
      <point x="543" y="31"/>
      <point x="463" y="93"/>
      <point x="355" y="93" type="curve" smooth="yes"/>
      <point x="261" y="93" type="line" smooth="yes"/>
      <point x="207" y="93"/>
      <point x="192" y="112"/>
      <point x="192" y="136" type="curve" smooth="yes"/>
      <point x="192" y="155"/>
      <point x="203" y="174"/>
      <point x="218" y="185" type="curve"/>
      <point x="240" y="178"/>
      <point x="261" y="175"/>
      <point x="295" y="175" type="curve" smooth="yes"/>
      <point x="421" y="175"/>
      <point x="496" y="250"/>
      <point x="496" y="354" type="curve" smooth="yes"/>
      <point x="496" y="415"/>
      <point x="465" y="459"/>
      <point x="403" y="487" type="curve"/>
      <point x="463" y="487"/>
      <point x="513" y="489"/>
      <point x="557" y="503" type="curve"/>
      <point x="530" y="586" type="line"/>
    </contour>
    <contour>
      <point x="364" y="473"/>
      <point x="402" y="433"/>
      <point x="402" y="356" type="curve" smooth="yes"/>
      <point x="402" y="280"/>
      <point x="363" y="236"/>
      <point x="291" y="236" type="curve" smooth="yes"/>
      <point x="209" y="236"/>
      <point x="170" y="285"/>
      <point x="170" y="355" type="curve" smooth="yes"/>
      <point x="170" y="424"/>
      <point x="208" y="473"/>
      <point x="289" y="473" type="curve" smooth="yes"/>
    </contour>
  </outline>
</glyph>
<glyph name="p" format="1">
  <advance width="600"/>
  <unicode hex="0070"/>
  <outline>
    <contour>
      <point x="277" y="539"/>
      <point x="222" y="509"/>
      <point x="183" y="455" type="curve"/>
      <point x="176" y="527" type="line"/>
      <point x="97" y="527" type="line"/>
      <point x="97" y="-213" type="line"/>
      <point x="189" y="-202" type="line"/>
      <point x="189" y="48" type="line"/>
      <point x="224" y="8"/>
      <point x="270" y="-12"/>
      <point x="327" y="-12" type="curve" smooth="yes"/>
      <point x="463" y="-12"/>
      <point x="530" y="104"/>
      <point x="530" y="264" type="curve" smooth="yes"/>
      <point x="530" y="430"/>
      <point x="479" y="539"/>
      <point x="339" y="539" type="curve" smooth="yes"/>
    </contour>
    <contour>
      <point x="395" y="466"/>
      <point x="432" y="401"/>
      <point x="432" y="264" type="curve" smooth="yes"/>
      <point x="432" y="126"/>
      <point x="389" y="63"/>
      <point x="305" y="63" type="curve" smooth="yes"/>
      <point x="257" y="63"/>
      <point x="216" y="87"/>
      <point x="189" y="127" type="curve"/>
      <point x="189" y="384" type="line"/>
      <point x="217" y="426"/>
      <point x="260" y="466"/>
      <point x="316" y="466" type="curve" smooth="yes"/>
    </contour>
  </outline>
</glyph>
<glyph name="v" format="1">
  <advance width="600"/>
  <unicode hex="0076"/>
  <outline>
    <contour>
      <point x="448" y="527" type="line"/>
      <point x="302" y="81" type="line"/>
      <point x="155" y="527" type="line"/>
      <point x="57" y="527" type="line"/>
      <point x="246" y="0" type="line"/>
      <point x="353" y="0" type="line"/>
      <point x="543" y="527" type="line"/>
    </contour>
  </outline>
</glyph>
<glyph name="y" format="1">
  <advance width="600"/>
  <unicode hex="0079"/>
  <outline>
    <contour>
      <point x="447" y="527" type="line"/>
      <point x="302" y="68" type="line"/>
      <point x="156" y="527" type="line"/>
      <point x="58" y="527" type="line"/>
      <point x="240" y="0" type="line"/>
      <point x="271" y="0" type="line"/>
      <point x="243" y="-80"/>
      <point x="211" y="-123"/>
      <point x="103" y="-141" type="curve"/>
      <point x="116" y="-213" type="line"/>
      <point x="258" y="-199"/>
      <point x="320" y="-114"/>
      <point x="358" y="-3" type="curve" smooth="yes"/>
      <point x="542" y="527" type="line"/>
    </contour>
    <contour>
      <point x="300" y="527" type="move" name="top"/>
    </contour>
  </outline>
</glyph>
<glyph name="braceleft" format="1">
  <advance width="600"/>
  <unicode hex="007B"/>
  <outline>
    <contour>
      <point x="333" y="836"/>
      <point x="246" y="802"/>
      <point x="246" y="677" type="curve" smooth="yes"/>
      <point x="246" y="491" type="line" smooth="yes"/>
      <point x="246" y="422"/>
      <point x="215" y="387"/>
      <point x="146" y="387" type="curve"/>
      <point x="146" y="313" type="line"/>
      <point x="215" y="313"/>
      <point x="246" y="277"/>
      <point x="246" y="208" type="curve" smooth="yes"/>
      <point x="246" y="23" type="line" smooth="yes"/>
      <point x="246" y="-102"/>
      <point x="333" y="-136"/>
      <point x="453" y="-136" type="curve"/>
      <point x="453" y="-65" type="line"/>
      <point x="381" y="-65"/>
      <point x="333" y="-48"/>
      <point x="333" y="13" type="curve" smooth="yes"/>
      <point x="333" y="212" type="line" smooth="yes"/>
      <point x="333" y="303"/>
      <point x="295" y="337"/>
      <point x="221" y="350" type="curve"/>
      <point x="293" y="363"/>
      <point x="333" y="401"/>
      <point x="333" y="488" type="curve" smooth="yes"/>
      <point x="333" y="687" type="line" smooth="yes"/>
      <point x="333" y="747"/>
      <point x="381" y="765"/>
      <point x="453" y="765" type="curve"/>
      <point x="453" y="836" type="line"/>
    </contour>
  </outline>
</glyph>
<glyph name="braceright" format="1">
  <advance width="600"/>
  <unicode hex="007D"/>
  <outline>
    <contour>
      <point x="147" y="765" type="line"/>
      <point x="219" y="765"/>
      <point x="267" y="747"/>
      <point x="267" y="687" type="curve" smooth="yes"/>
      <point x="267" y="488" type="line" smooth="yes"/>
      <point x="267" y="401"/>
      <point x="307" y="363"/>
      <point x="379" y="349" type="curve"/>
      <point x="305" y="337"/>
      <point x="267" y="303"/>
      <point x="267" y="212" type="curve" smooth="yes"/>
      <point x="267" y="13" type="line" smooth="yes"/>
      <point x="267" y="-48"/>
      <point x="219" y="-65"/>
      <point x="147" y="-65" type="curve"/>
      <point x="147" y="-136" type="line"/>
      <point x="267" y="-136"/>
      <point x="354" y="-102"/>
      <point x="354" y="23" type="curve" smooth="yes"/>
      <point x="354" y="208" type="line" smooth="yes"/>
      <point x="354" y="277"/>
      <point x="385" y="313"/>
      <point x="454" y="313" type="curve"/>
      <point x="454" y="387" type="line"/>
      <point x="385" y="387"/>
      <point x="354" y="422"/>
      <point x="354" y="491" type="curve" smooth="yes"/>
      <point x="354" y="677" type="line" smooth="yes"/>
      <point x="354" y="802"/>
      <point x="267" y="836"/>
      <point x="147" y="836" type="curve"/>
    </contour>
  </outline>
</glyph>
<glyph name="acute" format="1">
  <advance width="600"/>
  <unicode hex="00B4"/>
  <outline>
    <contour>
      <point x="212" y="622" type="line"/>
      <point x="417" y="714" type="line"/>
      <point x="370" y="791" type="line"/>
      <point x="182" y="672" type="line"/>
    </contour>
    <contour>
      <point x="300" y="527" type="move" name="_top"/>
    </contour>
  </outline>
</glyph>
<glyph name="Eth" format="1">
  <advance width="600"/>
  <unicode hex="00D0"/>
  <outline>
    <contour>
      <point x="185" y="388" type="line"/>
      <point x="19" y="388" type="line"/>
      <point x="19" y="318" type="line"/>
      <point x="90" y="318" type="line"/>
      <point x="339" y="318" type="line"/>
      <point x="339" y="388" type="line"/>
    </contour>
    <component base="D" xOffset="10"/>
  </outline>
</glyph>
<glyph name="oslash" format="1">
  <advance width="600"/>
  <unicode hex="00F8"/>
  <outline>
    <contour>
      <point x="151" y="539"/>
      <point x="70" y="426"/>
      <point x="70" y="263" type="curve" smooth="yes"/>
      <point x="70" y="96"/>
      <point x="155" y="-12"/>
      <point x="300" y="-12" type="curve" smooth="yes"/>
      <point x="449" y="-12"/>
      <point x="530" y="101"/>
      <point x="530" y="264" type="curve" smooth="yes"/>
      <point x="530" y="431"/>
      <point x="446" y="539"/>
      <point x="301" y="539" type="curve" smooth="yes"/>
    </contour>
    <contour>
      <point x="346" y="529" type="line"/>
      <point x="338" y="482" type="line"/>
      <point x="214" y="82" type="line"/>
      <point x="186" y="31" type="line"/>
      <point x="140" y="-109" type="line"/>
      <point x="215" y="-131" type="line"/>
      <point x="254" y="0" type="line"/>
      <point x="267" y="58" type="line"/>
      <point x="391" y="457" type="line"/>
      <point x="417" y="500" type="line"/>
      <point x="461" y="633" type="line"/>
      <point x="386" y="655" type="line"/>
    </contour>
    <contour>
      <point x="388" y="465"/>
      <point x="432" y="411"/>
      <point x="432" y="264" type="curve" smooth="yes"/>
      <point x="432" y="126"/>
      <point x="388" y="62"/>
      <point x="300" y="62" type="curve" smooth="yes"/>
      <point x="212" y="62"/>
      <point x="168" y="116"/>
      <point x="168" y="263" type="curve" smooth="yes"/>
      <point x="168" y="401"/>
      <point x="213" y="465"/>
      <point x="301" y="465" type="curve" smooth="yes"/>
    </contour>
    <contour>
      <point x="300" y="527" type="move" name="top"/>
    </contour>
  </outline>
</glyph>
<glyph name="dcroat" format="1">
  <advance width="600"/>
  <unicode hex="0111"/>
  <outline>
    <contour>
      <point x="245" y="667" type="line"/>
      <point x="245" y="597" type="line"/>
      <point x="411" y="597" type="line"/>
      <point x="582" y="597" type="line"/>
      <point x="582" y="667" type="line"/>
      <point x="503" y="667" type="line"/>
    </contour>
    <component base="d"/>
  </outline>
</glyph>
<glyph name="hbar" format="1">
  <advance width="600"/>
  <unicode hex="0127"/>
  <outline>
    <contour>
      <point x="97" y="667" type="line"/>
      <point x="18" y="667" type="line"/>
      <point x="18" y="597" type="line"/>
      <point x="189" y="597" type="line"/>
      <point x="355" y="597" type="line"/>
      <point x="355" y="667" type="line"/>
    </contour>
    <component base="h"/>
  </outline>
</glyph>
<glyph name="kgreenlandic" format="1">
  <advance width="600"/>
  <unicode hex="0138"/>
  <outline>
    <contour>
      <point x="425" y="527" type="line"/>
      <point x="198" y="282" type="line"/>
      <point x="448" y="0" type="line"/>
      <point x="566" y="0" type="line"/>
      <point x="308" y="288" type="line"/>
      <point x="540" y="527" type="line"/>
    </contour>
    <contour>
      <point x="97" y="527" type="line"/>
      <point x="97" y="0" type="line"/>
      <point x="189" y="0" type="line"/>
      <point x="189" y="527" type="line"/>
    </contour>
  </outline>
</glyph>
<glyph name="Lslash" format="1">
  <advance width="600"/>
  <unicode hex="0141"/>
  <outline>
    <contour>
      <point x="425" y="446" type="line"/>
      <point x="386" y="505" type="line"/>
      <point x="131" y="346" type="line"/>
      <point x="37" y="289" type="line"/>
      <point x="75" y="229" type="line"/>
    </contour>
    <component base="L"/>
  </outline>
</glyph>
<glyph name="eng" format="1">
  <advance width="600"/>
  <unicode hex="014B"/>
  <outline>
    <contour>
      <point x="504" y="383" type="line" smooth="yes"/>
      <point x="504" y="481"/>
      <point x="458" y="539"/>
      <point x="356" y="539" type="curve" smooth="yes"/>
      <point x="294" y="539"/>
      <point x="226" y="509"/>
      <point x="183" y="455" type="curve"/>
      <point x="176" y="527" type="line"/>
      <point x="97" y="527" type="line"/>
      <point x="97" y="0" type="line"/>
      <point x="189" y="0" type="line"/>
      <point x="189" y="382" type="line"/>
      <point x="217" y="423"/>
      <point x="268" y="467"/>
      <point x="325" y="467" type="curve" smooth="yes"/>
      <point x="402" y="467"/>
      <point x="412" y="426"/>
      <point x="412" y="323" type="curve" smooth="yes"/>
      <point x="412" y="26" type="line" smooth="yes"/>
      <point x="412" y="-87"/>
      <point x="378" y="-113"/>
      <point x="309" y="-145" type="curve"/>
      <point x="343" y="-212" type="line"/>
      <point x="449" y="-165"/>
      <point x="504" y="-120"/>
      <point x="504" y="32" type="curve" smooth="yes"/>
    </contour>
  </outline>
</glyph>
<glyph name="dotlessj" format="1">
  <advance width="600"/>
  <unicode hex="0237"/>
  <outline>
    <contour>
      <point x="140" y="527" type="line"/>
      <point x="140" y="456" type="line"/>
      <point x="356" y="456" type="line"/>
      <point x="356" y="86" type="line" smooth="yes"/>
      <point x="356" y="-57"/>
      <point x="249" y="-115"/>
      <point x="93" y="-142" type="curve"/>
      <point x="108" y="-213" type="line"/>
      <point x="324" y="-176"/>
      <point x="448" y="-90"/>
      <point x="448" y="92" type="curve" smooth="yes"/>
      <point x="448" y="527" type="line"/>
    </contour>
    <contour>
      <point x="368" y="527" type="move" name="top"/>
    </contour>
  </outline>
</glyph>
<glyph name="acutecomb" format="1">
  <advance width="600"/>
  <unicode hex="0301"/>
  <outline>
    <contour>
      <point x="180" y="668" type="line"/>
      <point x="204" y="619" type="line"/>
      <point x="420" y="698" type="line"/>
      <point x="380" y="775" type="line"/>
    </contour>
    <contour>
      <point x="300" y="527" type="move" name="_top"/>
    </contour>
  </outline>
</glyph>
<glyph name="uni0306" format="1">
  <advance width="600"/>
  <unicode hex="0306"/>
  <outline>
    <contour>
      <point x="380" y="586"/>
      <point x="444" y="635"/>
      <point x="452" y="709" type="curve"/>
      <point x="391" y="722" type="line"/>
      <point x="377" y="682"/>
      <point x="346" y="656"/>
      <point x="298" y="656" type="curve" smooth="yes"/>
      <point x="251" y="656"/>
      <point x="223" y="682"/>
      <point x="209" y="722" type="curve"/>
      <point x="148" y="709" type="line"/>
      <point x="156" y="635"/>
      <point x="218" y="586"/>
      <point x="298" y="586" type="curve" smooth="yes"/>
    </contour>
    <contour>
      <point x="300" y="527" type="move" name="_top"/>
    </contour>
  </outline>
</glyph>
<glyph name="uni0307" format="1">
  <advance width="600"/>
  <unicode hex="0307"/>
  <outline>
    <component base="dotaccent" xOffset="1" yOffset="-52"/>
    <contour>
      <point x="300" y="527" type="move" name="_top"/>
    </contour>
  </outline>
</glyph>
<glyph name="strokeshortoverlay" format="1">
  <advance width="600"/>
  <unicode hex="0335"/>
  <outline>
    <contour>
      <point x="474" y="348" type="line"/>
      <point x="125" y="348" type="line"/>
      <point x="125" y="278" type="line"/>
      <point x="474" y="278" type="line"/>
    </contour>
  </outline>
</glyph>
<glyph name="strokelongoverlay" format="1">
  <advance width="600"/>
  <unicode hex="0336"/>
  <outline>
    <contour>
      <point x="627" y="348" type="line"/>
      <point x="-26" y="348" type="line"/>
      <point x="-26" y="278" type="line"/>
      <point x="627" y="278" type="line"/>
    </contour>
  </outline>
</glyph>
<glyph name="Theta" format="1">
  <advance width="600"/>
  <unicode hex="0398"/>
  <outline>
    <contour>
      <point x="399" y="389" type="line"/>
      <point x="200" y="389" type="line"/>
      <point x="200" y="315" type="line"/>
      <point x="399" y="315" type="line"/>
    </contour>
    <contour>
      <point x="556" y="558"/>
      <point x="469" y="701"/>
      <point x="300" y="701" type="curve" smooth="yes"/>
      <point x="131" y="701"/>
      <point x="44" y="553"/>
      <point x="44" y="343" type="curve" smooth="yes"/>
      <point x="44" y="129"/>
      <point x="131" y="-12"/>
      <point x="300" y="-12" type="curve" smooth="yes"/>
      <point x="469" y="-12"/>
      <point x="556" y="134"/>
      <point x="556" y="344" type="curve" smooth="yes"/>
    </contour>
    <contour>
      <point x="457" y="162"/>
      <point x="412" y="66"/>
      <point x="300" y="66" type="curve" smooth="yes"/>
      <point x="191" y="66"/>
      <point x="143" y="161"/>
      <point x="143" y="343" type="curve" smooth="yes"/>
      <point x="143" y="525"/>
      <point x="188" y="623"/>
      <point x="300" y="623" type="curve" smooth="yes"/>
      <point x="412" y="623"/>
      <point x="457" y="526"/>
      <point x="457" y="344" type="curve" smooth="yes"/>
    </contour>
  </outline>
</glyph>
<glyph name="Xi" format="1">
  <advance width="600"/>
  <unicode hex="039E"/>
  <outline>
    <contour>
      <point x="74" y="87" type="line"/>
      <point x="74" y="0" type="line"/>
      <point x="526" y="0" type="line"/>
      <point x="526" y="87" type="line"/>
    </contour>
    <contour>
      <point x="125" y="392" type="line"/>
      <point x="125" y="307" type="line"/>
      <point x="466" y="307" type="line"/>
      <point x="466" y="392" type="line"/>
    </contour>
    <contour>
      <point x="74" y="689" type="line"/>
      <point x="74" y="604" type="line"/>
      <point x="504" y="604" type="line"/>
      <point x="517" y="689" type="line"/>
    </contour>
  </outline>
</glyph>
<glyph name="beta" format="1">
  <advance width="600"/>
  <unicode hex="03B2"/>
  <outline>
    <contour>
      <point x="165" y="750"/>
      <point x="87" y="672"/>
      <point x="87" y="541" type="curve" smooth="yes"/>
      <point x="87" y="-214" type="line"/>
      <point x="179" y="-201" type="line"/>
      <point x="179" y="541" type="line" smooth="yes"/>
      <point x="179" y="634"/>
      <point x="218" y="678"/>
      <point x="292" y="678" type="curve" smooth="yes"/>
      <point x="359" y="678"/>
      <point x="408" y="642"/>
      <point x="408" y="562" type="curve" smooth="yes"/>
      <point x="408" y="471"/>
      <point x="355" y="433"/>
      <point x="289" y="433" type="curve" smooth="yes"/>
      <point x="240" y="433" type="line"/>
      <point x="230" y="363" type="line"/>
      <point x="282" y="363" type="line" smooth="yes"/>
      <point x="393" y="363"/>
      <point x="455" y="309"/>
      <point x="455" y="204" type="curve" smooth="yes"/>
      <point x="455" y="110"/>
      <point x="392" y="62"/>
      <point x="315" y="62" type="curve" smooth="yes"/>
      <point x="251" y="62"/>
      <point x="205" y="80"/>
      <point x="168" y="121" type="curve"/>
      <point x="152" y="62" type="line"/>
      <point x="202" y="13"/>
      <point x="263" y="-12"/>
      <point x="327" y="-12" type="curve" smooth="yes"/>
      <point x="445" y="-12"/>
      <point x="549" y="71"/>
      <point x="549" y="203" type="curve" smooth="yes"/>
      <point x="549" y="354"/>
      <point x="440" y="394"/>
      <point x="346" y="404" type="curve"/>
      <point x="429" y="416"/>
      <point x="495" y="468"/>
      <point x="495" y="571" type="curve" smooth="yes"/>
      <point x="495" y="682"/>
      <point x="403" y="750"/>
      <point x="291" y="750" type="curve" smooth="yes"/>
    </contour>
  </outline>
</glyph>
<glyph name="pi" format="1">
  <advance width="600"/>
  <unicode hex="03C0"/>
  <outline>
    <contour>
      <point x="112" y="468" type="line"/>
      <point x="112" y="0" type="line"/>
      <point x="204" y="0" type="line"/>
      <point x="204" y="468" type="line"/>
    </contour>
    <contour>
      <point x="386" y="468" type="line"/>
      <point x="386" y="130" type="line" smooth="yes"/>
      <point x="386" y="46"/>
      <point x="417" y="7"/>
      <point x="495" y="-12" type="curve"/>
      <point x="527" y="62" type="line"/>
      <point x="491" y="71"/>
      <point x="478" y="89"/>
      <point x="478" y="141" type="curve" smooth="yes"/>
      <point x="478" y="468" type="line"/>
    </contour>
    <contour>
      <point x="134" y="527" type="line" smooth="yes"/>
      <point x="78" y="527"/>
      <point x="40" y="525"/>
      <point x="6" y="509" type="curve"/>
      <point x="26" y="440" type="line"/>
      <point x="59" y="449"/>
      <point x="72" y="451"/>
      <point x="125" y="452" type="curve" smooth="yes"/>
      <point x="560" y="452" type="line"/>
      <point x="560" y="527" type="line"/>
    </contour>
  </outline>
</glyph>
<glyph name="upsilon" format="1">
  <advance width="600"/>
  <unicode hex="03C5"/>
  <outline>
    <contour>
      <point x="409" y="527" type="line"/>
      <point x="428" y="428"/>
      <point x="435" y="338"/>
      <point x="435" y="263" type="curve" smooth="yes"/>
      <point x="435" y="106"/>
      <point x="360" y="62"/>
      <point x="291" y="62" type="curve" smooth="yes"/>
      <point x="228" y="62"/>
      <point x="191" y="97"/>
      <point x="191" y="171" type="curve" smooth="yes"/>
      <point x="191" y="527" type="line"/>
      <point x="99" y="527" type="line"/>
      <point x="99" y="163" type="line" smooth="yes"/>
      <point x="99" y="46"/>
      <point x="178" y="-12"/>
      <point x="287" y="-12" type="curve" smooth="yes"/>
      <point x="409" y="-12"/>
      <point x="528" y="68"/>
      <point x="528" y="255" type="curve" smooth="yes"/>
      <point x="528" y="358"/>
      <point x="518" y="440"/>
      <point x="502" y="527" type="curve"/>
    </contour>
    <contour>
      <point x="300" y="527" type="move" name="top"/>
    </contour>
  </outline>
</glyph>
<glyph name="uni0402" format="1">
  <advance width="600"/>
  <unicode hex="0402"/>
  <outline>
    <contour>
      <point x="406" y="612" type="line"/>
      <point x="416" y="689" type="line"/>
      <point x="-5" y="689" type="line"/>
      <point x="-5" y="612" type="line"/>
      <point x="154" y="612" type="line"/>
      <point x="154" y="0" type="line"/>
      <point x="248" y="0" type="line"/>
      <point x="248" y="321" type="line"/>
      <point x="273" y="344"/>
      <point x="309" y="372"/>
      <point x="368" y="372" type="curve" smooth="yes"/>
      <point x="445" y="372"/>
      <point x="474" y="335"/>
      <point x="474" y="243" type="curve" smooth="yes"/>
      <point x="474" y="96" type="line" smooth="yes"/>
      <point x="474" y="7"/>
      <point x="454" y="-30"/>
      <point x="367" y="-65" type="curve"/>
      <point x="391" y="-139" type="line"/>
      <point x="501" y="-102"/>
      <point x="568" y="-46"/>
      <point x="568" y="96" type="curve" smooth="yes"/>
      <point x="568" y="247" type="line" smooth="yes"/>
      <point x="568" y="381"/>
      <point x="510" y="452"/>
      <point x="390" y="452" type="curve" smooth="yes"/>
      <point x="331" y="452"/>
      <point x="284" y="426"/>
      <point x="248" y="394" type="curve"/>
      <point x="248" y="612" type="line"/>
    </contour>
  </outline>
</glyph>
<glyph name="uni040A" format="1">
  <advance width="600"/>
  <unicode hex="040A"/>
  <outline>
    <contour>
      <point x="266" y="689" type="line"/>
      <point x="266" y="416" type="line"/>
      <point x="130" y="416" type="line"/>
      <point x="130" y="689" type="line"/>
      <point x="40" y="689" type="line"/>
      <point x="40" y="0" type="line"/>
      <point x="130" y="0" type="line"/>
      <point x="130" y="346" type="line"/>
      <point x="266" y="346" type="line"/>
      <point x="266" y="0" type="line"/>
      <point x="363" y="0" type="line" smooth="yes"/>
      <point x="509" y="0"/>
      <point x="600" y="58"/>
      <point x="600" y="214" type="curve" smooth="yes"/>
      <point x="600" y="354"/>
      <point x="518" y="416"/>
      <point x="356" y="416" type="curve"/>
      <point x="356" y="689" type="line"/>
    </contour>
    <contour>
      <point x="459" y="346"/>
      <point x="505" y="313"/>
      <point x="505" y="213" type="curve" smooth="yes"/>
      <point x="505" y="98"/>
      <point x="457" y="73"/>
      <point x="371" y="73" type="curve" smooth="yes"/>
      <point x="356" y="73" type="line"/>
      <point x="356" y="346" type="line"/>
      <point x="371" y="346" type="line" smooth="yes"/>
    </contour>
  </outline>
</glyph>
<glyph name="uni040B" format="1">
  <advance width="600"/>
  <unicode hex="040B"/>
  <outline>
    <contour>
      <point x="-5" y="689" type="line"/>
      <point x="-5" y="612" type="line"/>
      <point x="154" y="612" type="line"/>
      <point x="154" y="0" type="line"/>
      <point x="248" y="0" type="line"/>
      <point x="248" y="321" type="line"/>
      <point x="273" y="344"/>
      <point x="309" y="372"/>
      <point x="368" y="372" type="curve" smooth="yes"/>
      <point x="445" y="372"/>
      <point x="474" y="335"/>
      <point x="474" y="243" type="curve" smooth="yes"/>
      <point x="474" y="0" type="line"/>
      <point x="568" y="0" type="line"/>
      <point x="568" y="247" type="line" smooth="yes"/>
      <point x="568" y="381"/>
      <point x="510" y="452"/>
      <point x="390" y="452" type="curve" smooth="yes"/>
      <point x="329" y="452"/>
      <point x="284" y="428"/>
      <point x="248" y="394" type="curve"/>
      <point x="248" y="612" type="line"/>
      <point x="406" y="612" type="line"/>
      <point x="416" y="689" type="line"/>
    </contour>
  </outline>
</glyph>
<glyph name="uni0416" format="1">
  <advance width="600"/>
  <unicode hex="0416"/>
  <outline>
    <contour>
      <point x="260" y="0" type="line"/>
      <point x="340" y="0" type="line"/>
      <point x="340" y="326" type="line"/>
      <point x="397" y="326" type="line"/>
      <point x="497" y="0" type="line"/>
      <point x="589" y="0" type="line"/>
      <point x="468" y="366" type="line"/>
      <point x="575" y="689" type="line"/>
      <point x="487" y="689" type="line"/>
      <point x="397" y="398" type="line"/>
      <point x="340" y="398" type="line"/>
      <point x="340" y="689" type="line"/>
      <point x="260" y="689" type="line"/>
      <point x="260" y="398" type="line"/>
      <point x="203" y="398" type="line"/>
      <point x="114" y="689" type="line"/>
      <point x="25" y="689" type="line"/>
      <point x="132" y="366" type="line"/>
      <point x="11" y="0" type="line"/>
      <point x="101" y="0" type="line"/>
      <point x="202" y="326" type="line"/>
      <point x="260" y="326" type="line"/>
    </contour>
    <contour>
      <point x="300" y="689" type="move" name="top"/>
    </contour>
    <contour>
      <point x="565" y="0" type="move" name="bottomright"/>
    </contour>
  </outline>
</glyph>
<glyph name="uni041A" format="1">
  <advance width="600"/>
  <unicode hex="041A"/>
  <outline>
    <contour>
      <point x="476" y="0" type="line"/>
      <point x="589" y="0" type="line"/>
      <point x="344" y="366" type="line"/>
      <point x="570" y="689" type="line"/>
      <point x="469" y="689" type="line"/>
      <point x="264" y="401" type="line"/>
      <point x="185" y="401" type="line"/>
      <point x="185" y="689" type="line"/>
      <point x="90" y="689" type="line"/>
      <point x="90" y="0" type="line"/>
      <point x="185" y="0" type="line"/>
      <point x="185" y="323" type="line"/>
      <point x="263" y="323" type="line"/>
    </contour>
    <contour>
      <point x="320" y="689" type="move" name="top"/>
    </contour>
    <contour>
      <point x="539" y="0" type="move" name="bottomright"/>
    </contour>
  </outline>
</glyph>
<glyph name="uni0431" format="1">
  <advance width="600"/>
  <unicode hex="0431"/>
  <outline>
    <contour>
      <point x="383" y="717"/>
      <point x="345" y="701"/>
      <point x="267" y="674" type="curve" smooth="yes"/>
      <point x="112" y="621"/>
      <point x="72" y="509"/>
      <point x="72" y="290" type="curve" smooth="yes"/>
      <point x="72" y="79"/>
      <point x="169" y="-12"/>
      <point x="299" y="-12" type="curve" smooth="yes"/>
      <point x="433" y="-12"/>
      <point x="527" y="81"/>
      <point x="527" y="251" type="curve" smooth="yes"/>
      <point x="527" y="402"/>
      <point x="449" y="493"/>
      <point x="334" y="493" type="curve" smooth="yes"/>
      <point x="245" y="493"/>
      <point x="179" y="438"/>
      <point x="149" y="357" type="curve"/>
      <point x="150" y="268" type="line"/>
      <point x="182" y="374"/>
      <point x="249" y="419"/>
      <point x="317" y="419" type="curve" smooth="yes"/>
      <point x="384" y="419"/>
      <point x="428" y="374"/>
      <point x="428" y="248" type="curve" smooth="yes"/>
      <point x="428" y="99"/>
      <point x="370" y="62"/>
      <point x="299" y="62" type="curve" smooth="yes"/>
      <point x="220" y="62"/>
      <point x="171" y="131"/>
      <point x="171" y="256" type="curve"/>
      <point x="171" y="393" type="line"/>
      <point x="168" y="393" type="line"/>
      <point x="181" y="538"/>
      <point x="225" y="575"/>
      <point x="311" y="606" type="curve" smooth="yes"/>
      <point x="389" y="634"/>
      <point x="435" y="658"/>
      <point x="473" y="682" type="curve"/>
      <point x="434" y="751" type="line"/>
    </contour>
  </outline>
</glyph>
<glyph name="uni0432" format="1">
  <advance width="600"/>
  <unicode hex="0432"/>
  <outline>
    <contour>
      <point x="226" y="539"/>
      <point x="165" y="531"/>
      <point x="108" y="520" type="curve"/>
      <point x="108" y="0" type="line"/>
      <point x="308" y="0" type="line" smooth="yes"/>
      <point x="428" y="0"/>
      <point x="535" y="46"/>
      <point x="535" y="156" type="curve" smooth="yes"/>
      <point x="535" y="235"/>
      <point x="491" y="277"/>
      <point x="401" y="286" type="curve"/>
      <point x="481" y="306"/>
      <point x="508" y="346"/>
      <point x="508" y="401" type="curve" smooth="yes"/>
      <point x="508" y="490"/>
      <point x="423" y="539"/>
      <point x="291" y="539" type="curve" smooth="yes"/>
    </contour>
    <contour>
      <point x="374" y="468"/>
      <point x="414" y="447"/>
      <point x="414" y="392" type="curve" smooth="yes"/>
      <point x="414" y="332"/>
      <point x="371" y="313"/>
      <point x="304" y="313" type="curve" smooth="yes"/>
      <point x="184" y="313" type="line"/>
      <point x="184" y="245" type="line"/>
      <point x="310" y="245" type="line" smooth="yes"/>
      <point x="373" y="245"/>
      <point x="438" y="230"/>
      <point x="438" y="157" type="curve" smooth="yes"/>
      <point x="438" y="79"/>
      <point x="362" y="72"/>
      <point x="293" y="72" type="curve" smooth="yes"/>
      <point x="200" y="72" type="line"/>
      <point x="200" y="462" type="line"/>
      <point x="230" y="466"/>
      <point x="254" y="468"/>
      <point x="292" y="468" type="curve" smooth="yes"/>
    </contour>
  </outline>
</glyph>
<glyph name="uni0434" format="1">
  <advance width="600"/>
  <unicode hex="0434"/>
  <outline>
    <contour>
      <point x="154" y="527" type="line"/>
      <point x="142" y="357" type="line" smooth="yes"/>
      <point x="128" y="170"/>
      <point x="107" y="114"/>
      <point x="61" y="74" type="curve"/>
      <point x="110" y="0" type="line"/>
      <point x="453" y="0" type="line"/>
      <point x="499" y="74" type="line"/>
      <point x="499" y="527" type="line"/>
    </contour>
    <contour>
      <point x="407" y="74" type="line"/>
      <point x="139" y="74" type="line"/>
      <point x="199" y="117"/>
      <point x="217" y="172"/>
      <point x="231" y="363" type="curve" smooth="yes"/>
      <point x="237" y="454" type="line"/>
      <point x="407" y="454" type="line"/>
    </contour>
    <component base="descStraight-cy" xOffset="374" xScale="-1"/>
    <component base="descStraight-cy" xOffset="190"/>
  </outline>
</glyph>
<glyph name="uni043D" format="1">
  <advance width="600"/>
  <unicode hex="043D"/>
  <outline>
    <contour>
      <point x="503" y="0" type="line"/>
      <point x="503" y="527" type="line"/>
      <point x="411" y="527" type="line"/>
      <point x="411" y="306" type="line"/>
      <point x="189" y="306" type="line"/>
      <point x="189" y="527" type="line"/>
      <point x="97" y="527" type="line"/>
      <point x="97" y="0" type="line"/>
      <point x="189" y="0" type="line"/>
      <point x="189" y="232" type="line"/>
      <point x="411" y="232" type="line"/>
      <point x="411" y="0" type="line"/>
    </contour>
    <contour>
      <point x="513" y="0" type="move" name="bottomright"/>
    </contour>
  </outline>
</glyph>
<glyph name="uni0442" format="1">
  <advance width="600"/>
  <unicode hex="0442"/>
  <outline>
    <contour>
      <point x="63" y="527" type="line"/>
      <point x="63" y="452" type="line"/>
      <point x="254" y="452" type="line"/>
      <point x="254" y="0" type="line"/>
      <point x="346" y="0" type="line"/>
      <point x="346" y="452" type="line"/>
      <point x="532" y="452" type="line"/>
      <point x="543" y="527" type="line"/>
    </contour>
    <contour>
      <point x="356" y="0" type="move" name="bottomright"/>
    </contour>
  </outline>
</glyph>
<glyph name="uni044A" format="1">
  <advance width="600"/>
  <unicode hex="044A"/>
  <outline>
    <contour>
      <point x="31" y="527" type="line"/>
      <point x="31" y="457" type="line"/>
      <point x="154" y="457" type="line"/>
      <point x="154" y="0" type="line"/>
      <point x="308" y="0" type="line" smooth="yes"/>
      <point x="448" y="0"/>
      <point x="548" y="48"/>
      <point x="548" y="184" type="curve" smooth="yes"/>
      <point x="548" y="311"/>
      <point x="456" y="362"/>
      <point x="306" y="362" type="curve" smooth="yes"/>
      <point x="246" y="362" type="line"/>
      <point x="246" y="527" type="line"/>
    </contour>
    <contour>
      <point x="400" y="292"/>
      <point x="450" y="263"/>
      <point x="450" y="184" type="curve" smooth="yes"/>
      <point x="450" y="93"/>
      <point x="392" y="72"/>
      <point x="315" y="72" type="curve" smooth="yes"/>
      <point x="246" y="72" type="line"/>
      <point x="246" y="292" type="line"/>
      <point x="315" y="292" type="line" smooth="yes"/>
    </contour>
  </outline>
</glyph>
<glyph name="uni044F" format="1">
  <advance width="600"/>
  <unicode hex="044F"/>
  <outline>
    <contour>
      <point x="154" y="539"/>
      <point x="86" y="474"/>
      <point x="86" y="369" type="curve" smooth="yes"/>
      <point x="86" y="303"/>
      <point x="115" y="252"/>
      <point x="177" y="223" type="curve"/>
      <point x="51" y="0" type="line"/>
      <point x="154" y="0" type="line"/>
      <point x="265" y="202" type="line"/>
      <point x="398" y="202" type="line"/>
      <point x="398" y="0" type="line"/>
      <point x="490" y="0" type="line"/>
      <point x="490" y="520" type="line"/>
      <point x="439" y="531"/>
      <point x="381" y="539"/>
      <point x="311" y="539" type="curve" smooth="yes"/>
    </contour>
    <contour>
      <point x="345" y="468"/>
      <point x="367" y="466"/>
      <point x="398" y="462" type="curve"/>
      <point x="398" y="272" type="line"/>
      <point x="301" y="272" type="line" smooth="yes"/>
      <point x="222" y="272"/>
      <point x="183" y="303"/>
      <point x="183" y="369" type="curve" smooth="yes"/>
      <point x="183" y="432"/>
      <point x="211" y="468"/>
      <point x="309" y="468" type="curve" smooth="yes"/>
    </contour>
  </outline>
</glyph>
<glyph name="uni0454" format="1">
  <advance width="600"/>
  <unicode hex="0454"/>
  <outline>
    <contour>
      <point x="181" y="539"/>
      <point x="89" y="420"/>
      <point x="89" y="261" type="curve" smooth="yes"/>
      <point x="89" y="96"/>
      <point x="180" y="-12"/>
      <point x="339" y="-12" type="curve" smooth="yes"/>
      <point x="400" y="-12"/>
      <point x="470" y="8"/>
      <point x="519" y="48" type="curve"/>
      <point x="475" y="108" type="line"/>
      <point x="432" y="76"/>
      <point x="387" y="63"/>
      <point x="340" y="63" type="curve" smooth="yes"/>
      <point x="256" y="63"/>
      <point x="192" y="114"/>
      <point x="184" y="235" type="curve"/>
      <point x="422" y="235" type="line"/>
      <point x="422" y="305" type="line"/>
      <point x="185" y="305" type="line"/>
      <point x="198" y="413"/>
      <point x="260" y="466"/>
      <point x="340" y="466" type="curve" smooth="yes"/>
      <point x="386" y="466"/>
      <point x="430" y="453"/>
      <point x="474" y="421" type="curve"/>
      <point x="519" y="480" type="line"/>
      <point x="469" y="520"/>
      <point x="408" y="539"/>
      <point x="340" y="539" type="curve" smooth="yes"/>
    </contour>
  </outline>
</glyph>
<glyph name="uni0462" format="1">
  <advance width="600"/>
  <unicode hex="0462"/>
  <outline>
    <contour>
      <point x="410" y="612" type="line"/>
      <point x="420" y="689" type="line"/>
      <point x="-1" y="689" type="line"/>
      <point x="-1" y="612" type="line"/>
      <point x="158" y="612" type="line"/>
      <point x="158" y="0" type="line"/>
      <point x="318" y="0" type="line" smooth="yes"/>
      <point x="474" y="0"/>
      <point x="585" y="59"/>
      <point x="585" y="216" type="curve" smooth="yes"/>
      <point x="585" y="361"/>
      <point x="483" y="423"/>
      <point x="316" y="423" type="curve" smooth="yes"/>
      <point x="252" y="423" type="line"/>
      <point x="252" y="612" type="line"/>
    </contour>
    <contour>
      <point x="326" y="351" type="line" smooth="yes"/>
      <point x="423" y="351"/>
      <point x="487" y="313"/>
      <point x="487" y="215" type="curve" smooth="yes"/>
      <point x="487" y="103"/>
      <point x="420" y="74"/>
      <point x="326" y="74" type="curve" smooth="yes"/>
      <point x="252" y="74" type="line"/>
      <point x="252" y="351" type="line"/>
    </contour>
  </outline>
</glyph>
<glyph name="uni0474" format="1">
  <advance width="600"/>
  <unicode hex="0474"/>
  <outline>
    <contour>
      <point x="470" y="664"/>
      <point x="458" y="637"/>
      <point x="436" y="561" type="curve" smooth="yes"/>
      <point x="302" y="97" type="line"/>
      <point x="124" y="689" type="line"/>
      <point x="22" y="689" type="line"/>
      <point x="249" y="0" type="line"/>
      <point x="353" y="0" type="line"/>
      <point x="522" y="538" type="line" smooth="yes"/>
      <point x="545" y="612"/>
      <point x="560" y="645"/>
      <point x="587" y="684" type="curve"/>
      <point x="493" y="701" type="line"/>
    </contour>
  </outline>
</glyph>
<glyph name="uni0491" format="1">
  <advance width="600"/>
  <unicode hex="0491"/>
  <outline>
    <contour>
      <point x="526" y="527" type="line"/>
      <point x="526" y="662" type="line"/>
      <point x="434" y="662" type="line"/>
      <point x="434" y="514" type="line"/>
    </contour>
    <component base="uni0433"/>
  </outline>
</glyph>
<glyph name="uni049D" format="1">
  <advance width="600"/>
  <unicode hex="049D"/>
  <outline>
    <contour>
      <point x="194" y="0" type="line"/>
      <point x="194" y="243" type="line"/>
      <point x="238" y="243" type="line"/>
      <point x="238" y="120" type="line"/>
      <point x="285" y="120" type="line"/>
      <point x="285" y="243" type="line"/>
      <point x="312" y="243" type="line"/>
      <point x="471" y="0" type="line"/>
      <point x="571" y="0" type="line"/>
      <point x="386" y="284" type="line"/>
      <point x="545" y="527" type="line"/>
      <point x="450" y="527" type="line"/>
      <point x="312" y="315" type="line"/>
      <point x="285" y="315" type="line"/>
      <point x="285" y="430" type="line"/>
      <point x="238" y="430" type="line"/>
      <point x="238" y="315" type="line"/>
      <point x="194" y="315" type="line"/>
      <point x="194" y="527" type="line"/>
      <point x="102" y="527" type="line"/>
      <point x="102" y="0" type="line"/>
    </contour>
  </outline>
</glyph>
<glyph name="uni04B1" format="1">
  <advance width="600"/>
  <unicode hex="04B1"/>
  <outline>
    <contour>
      <point x="151" y="72" type="line"/>
      <point x="151" y="2" type="line"/>
      <point x="345" y="2" type="line"/>
      <point x="449" y="2" type="line"/>
      <point x="449" y="72" type="line"/>
    </contour>
    <component base="uni04AF"/>
  </outline>
</glyph>
<glyph name="uni04BA" format="1">
  <advance width="600"/>
  <unicode hex="04BA"/>
  <outline>
    <contour>
      <point x="262" y="452"/>
      <point x="206" y="421"/>
      <point x="165" y="372" type="curve"/>
      <point x="165" y="284" type="line"/>
      <point x="204" y="338"/>
      <point x="250" y="371"/>
      <point x="325" y="371" type="curve" smooth="yes"/>
      <point x="416" y="371"/>
      <point x="456" y="323"/>
      <point x="456" y="234" type="curve" smooth="yes"/>
      <point x="456" y="0" type="line"/>
      <point x="551" y="0" type="line"/>
      <point x="551" y="235" type="line" smooth="yes"/>
      <point x="551" y="371"/>
      <point x="477" y="452"/>
      <point x="347" y="452" type="curve" smooth="yes"/>
    </contour>
    <contour>
      <point x="80" y="689" type="line"/>
      <point x="80" y="0" type="line"/>
      <point x="175" y="0" type="line"/>
      <point x="175" y="689" type="line"/>
    </contour>
    <contour>
      <point x="561" y="0" type="move" name="bottomright"/>
    </contour>
  </outline>
</glyph>
<glyph name="uni04BB" format="1">
  <advance width="600"/>
  <unicode hex="04BB"/>
  <outline>
    <contour>
      <point x="270" y="479"/>
      <point x="210" y="435"/>
      <point x="174" y="372" type="curve"/>
      <point x="190" y="314" type="line"/>
      <point x="225" y="370"/>
      <point x="265" y="407"/>
      <point x="326" y="407" type="curve" smooth="yes"/>
      <point x="379" y="407"/>
      <point x="411" y="384"/>
      <point x="411" y="305" type="curve" smooth="yes"/>
      <point x="411" y="0" type="line"/>
      <point x="503" y="0" type="line"/>
      <point x="503" y="318" type="line" smooth="yes"/>
      <point x="503" y="418"/>
      <point x="447" y="479"/>
      <point x="353" y="479" type="curve" smooth="yes"/>
    </contour>
    <contour>
      <point x="98" y="738" type="line"/>
      <point x="98" y="0" type="line"/>
      <point x="190" y="0" type="line"/>
      <point x="190" y="748" type="line"/>
    </contour>
    <contour>
      <point x="513" y="0" type="move" name="bottomright"/>
    </contour>
  </outline>
</glyph>
<glyph name="uni04D9" format="1">
  <advance width="600"/>
  <unicode hex="04D9"/>
  <outline>
    <contour>
      <point x="216" y="539"/>
      <point x="156" y="515"/>
      <point x="108" y="476" type="curve"/>
      <point x="150" y="415" type="line"/>
      <point x="195" y="452"/>
      <point x="237" y="464"/>
      <point x="290" y="464" type="curve" smooth="yes"/>
      <point x="384" y="464"/>
      <point x="430" y="407"/>
      <point x="432" y="270" type="curve"/>
      <point x="432" y="251" type="line"/>
      <point x="433" y="111"/>
      <point x="385" y="61"/>
      <point x="294" y="61" type="curve" smooth="yes"/>
      <point x="209" y="61"/>
      <point x="160" y="118"/>
      <point x="160" y="219" type="curve" smooth="yes"/>
      <point x="160" y="222"/>
      <point x="160" y="224"/>
      <point x="160" y="227" type="curve"/>
      <point x="447" y="227" type="line"/>
      <point x="447" y="295" type="line"/>
      <point x="72" y="295" type="line"/>
      <point x="70" y="281"/>
      <point x="70" y="265"/>
      <point x="70" y="248" type="curve" smooth="yes"/>
      <point x="70" y="85"/>
      <point x="156" y="-12"/>
      <point x="294" y="-12" type="curve" smooth="yes"/>
      <point x="441" y="-12"/>
      <point x="529" y="94"/>
      <point x="529" y="264" type="curve" smooth="yes"/>
      <point x="529" y="431"/>
      <point x="458" y="539"/>
      <point x="292" y="539" type="curve" smooth="yes"/>
    </contour>
    <contour>
      <point x="301" y="527" type="move" name="top"/>
    </contour>
  </outline>
</glyph>
<glyph name="uni04E8" format="1">
  <advance width="600"/>
  <unicode hex="04E8"/>
  <outline>
    <contour>
      <point x="556" y="558"/>
      <point x="469" y="701"/>
      <point x="300" y="701" type="curve" smooth="yes"/>
      <point x="131" y="701"/>
      <point x="44" y="553"/>
      <point x="44" y="343" type="curve" smooth="yes"/>
      <point x="44" y="129"/>
      <point x="131" y="-12"/>
      <point x="300" y="-12" type="curve" smooth="yes"/>
      <point x="469" y="-12"/>
      <point x="556" y="134"/>
      <point x="556" y="344" type="curve" smooth="yes"/>
    </contour>
    <contour>
      <point x="195" y="66"/>
      <point x="147" y="153"/>
      <point x="143" y="316" type="curve"/>
      <point x="456" y="316" type="line"/>
      <point x="452" y="153"/>
      <point x="407" y="66"/>
      <point x="300" y="66" type="curve" smooth="yes"/>
    </contour>
    <contour>
      <point x="402" y="623"/>
      <point x="448" y="542"/>
      <point x="455" y="386" type="curve"/>
      <point x="144" y="386" type="line"/>
      <point x="152" y="542"/>
      <point x="198" y="623"/>
      <point x="300" y="623" type="curve" smooth="yes"/>
    </contour>
    <contour>
      <point x="300" y="689" type="move" name="top"/>
    </contour>
  </outline>
</glyph>
<glyph name="uni04E9" format="1">
  <advance width="600"/>
  <unicode hex="04E9"/>
  <outline>
    <contour>
      <point x="151" y="539"/>
      <point x="70" y="426"/>
      <point x="70" y="263" type="curve" smooth="yes"/>
      <point x="70" y="96"/>
      <point x="150" y="-12"/>
      <point x="300" y="-12" type="curve" smooth="yes"/>
      <point x="449" y="-12"/>
      <point x="530" y="101"/>
      <point x="530" y="264" type="curve" smooth="yes"/>
      <point x="530" y="431"/>
      <point x="451" y="539"/>
      <point x="301" y="539" type="curve" smooth="yes"/>
    </contour>
    <contour>
      <point x="423" y="114"/>
      <point x="379" y="62"/>
      <point x="300" y="62" type="curve" smooth="yes"/>
      <point x="220" y="62"/>
      <point x="177" y="114"/>
      <point x="169" y="233" type="curve"/>
      <point x="431" y="233" type="line"/>
    </contour>
    <contour>
      <point x="381" y="465"/>
      <point x="425" y="410"/>
      <point x="431" y="303" type="curve"/>
      <point x="169" y="303" type="line"/>
      <point x="175" y="411"/>
      <point x="220" y="465"/>
      <point x="301" y="465" type="curve" smooth="yes"/>
    </contour>
    <contour>
      <point x="301" y="527" type="move" name="top"/>
    </contour>
  </outline>
</glyph>
<glyph name="quoteright" format="1">
  <advance width="600"/>
  <unicode hex="2019"/>
  <outline>
    <contour>
      <point x="228" y="690"/>
      <point x="239" y="669"/>
      <point x="256" y="657" type="curve"/>
      <point x="215" y="474" type="line"/>
      <point x="283" y="474" type="line"/>
      <point x="364" y="644" type="line" smooth="yes"/>
      <point x="380" y="678"/>
      <point x="384" y="694"/>
      <point x="384" y="714" type="curve" smooth="yes"/>
      <point x="384" y="756"/>
      <point x="349" y="789"/>
      <point x="306" y="789" type="curve" smooth="yes"/>
      <point x="264" y="789"/>
      <point x="228" y="756"/>
      <point x="228" y="714" type="curve" smooth="yes"/>
    </contour>
  </outline>
</glyph>
<glyph name="arrowupdown" format="1">
  <advance width="600"/>
  <unicode hex="2195"/>
  <outline>
    <contour>
      <point x="-13" y="587" type="line"/>
      <point x="42" y="526" type="line"/>
      <point x="193" y="665" type="line" smooth="yes"/>
      <point x="218" y="687"/>
      <point x="238" y="707"/>
      <point x="255" y="739" type="curve"/>
      <point x="255" y="-61" type="line"/>
      <point x="238" y="-29"/>
      <point x="218" y="-9"/>
      <point x="193" y="13" type="curve" smooth="yes"/>
      <point x="42" y="152" type="line"/>
      <point x="-13" y="91" type="line"/>
      <point x="300" y="-190" type="line"/>
      <point x="613" y="91" type="line"/>
      <point x="558" y="152" type="line"/>
      <point x="407" y="13" type="line" smooth="yes"/>
      <point x="382" y="-9"/>
      <point x="362" y="-29"/>
      <point x="345" y="-61" type="curve"/>
      <point x="345" y="739" type="line"/>
      <point x="362" y="707"/>
      <point x="382" y="687"/>
      <point x="407" y="665" type="curve" smooth="yes"/>
      <point x="558" y="526" type="line"/>
      <point x="613" y="587" type="line"/>
      <point x="300" y="868" type="line"/>
    </contour>
  </outline>
</glyph>
<glyph name="arrowupleft" format="1">
  <advance width="600"/>
  <unicode hex="2196"/>
  <outline>
    <contour>
      <point x="564" y="135" type="line"/>
      <point x="186" y="515" type="line"/>
      <point x="228" y="507"/>
      <point x="249" y="506"/>
      <point x="291" y="508" type="curve" smooth="yes"/>
      <point x="477" y="518" type="line"/>
      <point x="472" y="601" type="line"/>
      <point x="58" y="579" type="line"/>
      <point x="36" y="157" type="line"/>
      <point x="123" y="152" type="line"/>
      <point x="135" y="349" type="line" smooth="yes"/>
      <point x="137" y="383"/>
      <point x="135" y="414"/>
      <point x="126" y="454" type="curve"/>
      <point x="503" y="74" type="line"/>
    </contour>
  </outline>
</glyph>
<glyph name="arrowrightwhite" format="1">
  <advance width="600"/>
  <unicode hex="21E8"/>
  <outline>
    <contour>
      <point x="342" y="437" type="line"/>
      <point x="10" y="437" type="line" smooth="yes"/>
      <point x="-20" y="437"/>
      <point x="-40" y="417"/>
      <point x="-40" y="387" type="curve" smooth="yes"/>
      <point x="-40" y="239" type="line"/>
      <point x="-40" y="209"/>
      <point x="-20" y="189"/>
      <point x="10" y="189" type="curve" smooth="yes"/>
      <point x="342" y="189" type="line"/>
      <point x="342" y="13" type="line"/>
      <point x="640" y="313" type="line"/>
      <point x="342" y="613" type="line"/>
    </contour>
    <contour>
      <point x="576" y="313" type="line"/>
      <point x="387" y="122" type="line"/>
      <point x="387" y="233" type="line"/>
      <point x="4" y="233" type="line"/>
      <point x="4" y="393" type="line"/>
      <point x="387" y="393" type="line"/>
      <point x="387" y="504" type="line"/>
    </contour>
  </outline>
</glyph>
<glyph name="house" format="1">
  <advance width="600"/>
  <unicode hex="2302"/>
  <outline>
    <contour>
      <point x="40" y="308" type="line"/>
      <point x="40" y="0" type="line"/>
      <point x="560" y="0" type="line"/>
      <point x="560" y="308" type="line"/>
      <point x="299" y="539" type="line"/>
    </contour>
    <contour>
      <point x="490" y="277" type="line"/>
      <point x="490" y="65" type="line"/>
      <point x="110" y="65" type="line"/>
      <point x="110" y="277" type="line"/>
      <point x="299" y="448" type="line"/>
    </contour>
  </outline>
</glyph>
<glyph name="uni2522" format="1">
  <advance width="600"/>
  <unicode hex="2522"/>
  <outline>
    <contour>
      <point x="260" y="1000" type="line"/>
      <point x="260" y="470" type="line"/>
      <point x="180" y="470" type="line"/>
      <point x="180" y="-500" type="line"/>
      <point x="420" y="-500" type="line"/>
      <point x="420" y="230" type="line"/>
      <point x="605" y="230" type="line"/>
      <point x="605" y="470" type="line"/>
      <point x="340" y="470" type="line"/>
      <point x="340" y="1000" type="line"/>
    </contour>
  </outline>
</glyph>
<glyph name="SF400000" format="1">
  <advance width="600"/>
  <unicode hex="2569"/>
  <outline>
    <contour>
      <point x="340" y="1000" type="line"/>
      <point x="340" y="390" type="line"/>
      <point x="605" y="390" type="line"/>
      <point x="605" y="470" type="line"/>
      <point x="420" y="470" type="line"/>
      <point x="420" y="1000" type="line"/>
    </contour>
    <contour>
      <point x="-5" y="310" type="line"/>
      <point x="-5" y="230" type="line"/>
      <point x="605" y="230" type="line"/>
      <point x="605" y="310" type="line"/>
    </contour>
    <contour>
      <point x="180" y="1000" type="line"/>
      <point x="180" y="470" type="line"/>
      <point x="-5" y="470" type="line"/>
      <point x="-5" y="390" type="line"/>
      <point x="260" y="390" type="line"/>
      <point x="260" y="1000" type="line"/>
    </contour>
  </outline>
</glyph>
<glyph name="uni2573" format="1">
  <advance width="600"/>
  <unicode hex="2573"/>
  <outline>
    <contour>
      <point x="300" y="407" type="line"/>
      <point x="113" y="594" type="line"/>
      <point x="56" y="537" type="line"/>
      <point x="243" y="350" type="line"/>
      <point x="56" y="163" type="line"/>
      <point x="113" y="106" type="line"/>
      <point x="300" y="293" type="line"/>
      <point x="487" y="106" type="line"/>
      <point x="544" y="163" type="line"/>
      <point x="357" y="350" type="line"/>
      <point x="544" y="537" type="line"/>
      <point x="487" y="594" type="line"/>
    </contour>
  </outline>
</glyph>
<glyph name="diamond" format="1">
  <advance width="600"/>
  <unicode hex="2666"/>
  <outline>
    <contour>
      <point x="104" y="266" type="line"/>
      <point x="300" y="-12" type="line"/>
      <point x="496" y="266" type="line"/>
      <point x="300" y="539" type="line"/>
    </contour>
  </outline>
</glyph>
<glyph name="breve-cy" format="1">
  <advance width="600"/>
  <outline>
    <contour>
      <point x="380" y="643"/>
      <point x="444" y="686"/>
      <point x="452" y="760" type="curve"/>
      <point x="391" y="773" type="line"/>
      <point x="377" y="730"/>
      <point x="346" y="713"/>
      <point x="299" y="713" type="curve" smooth="yes"/>
      <point x="252" y="713"/>
      <point x="224" y="730"/>
      <point x="210" y="773" type="curve"/>
      <point x="149" y="760" type="line"/>
      <point x="157" y="686"/>
      <point x="219" y="643"/>
      <point x="299" y="643" type="curve" smooth="yes"/>
    </contour>
    <contour>
      <point x="301" y="527" type="move" name="_top"/>
    </contour>
  </outline>
</glyph>
<glyph name="breve.case" format="1">
  <advance width="600"/>
  <outline>
    <contour>
      <point x="380" y="758"/>
      <point x="444" y="807"/>
      <point x="452" y="881" type="curve"/>
      <point x="391" y="894" type="line"/>
      <point x="377" y="854"/>
      <point x="346" y="828"/>
      <point x="299" y="828" type="curve" smooth="yes"/>
      <point x="252" y="828"/>
      <point x="224" y="854"/>
      <point x="210" y="894" type="curve"/>
      <point x="149" y="881" type="line"/>
      <point x="157" y="807"/>
      <point x="219" y="758"/>
      <point x="299" y="758" type="curve" smooth="yes"/>
    </contour>
    <contour>
      <point x="301" y="689" type="move" name="_top"/>
    </contour>
  </outline>
</glyph>
<glyph name="descRound-cy" format="1">
  <advance width="600"/>
  <outline>
    <contour>
      <point x="248" y="0" type="line"/>
      <point x="311" y="-35"/>
      <point x="339" y="-80"/>
      <point x="339" y="-124" type="curve" smooth="yes"/>
      <point x="339" y="-158"/>
      <point x="320" y="-180"/>
      <point x="282" y="-180" type="curve" smooth="yes"/>
      <point x="249" y="-180"/>
      <point x="229" y="-170"/>
      <point x="213" y="-162" type="curve"/>
      <point x="190" y="-216" type="line"/>
      <point x="212" y="-229"/>
      <point x="243" y="-241"/>
      <point x="288" y="-241" type="curve" smooth="yes"/>
      <point x="367" y="-241"/>
      <point x="416" y="-196"/>
      <point x="416" y="-129" type="curve" smooth="yes"/>
      <point x="416" y="-57"/>
      <point x="355" y="-5"/>
      <point x="265" y="25" type="curve"/>
    </contour>
    <contour>
      <point x="296" y="0" type="move" name="_bottom"/>
    </contour>
  </outline>
</glyph>
<glyph name="descStraight-cy.case" format="1">
  <advance width="600"/>
  <outline>
    <contour>
      <point x="256" y="78" type="line"/>
      <point x="246" y="0" type="line"/>
      <point x="269" y="0" type="line"/>
      <point x="284" y="-150" type="line"/>
      <point x="359" y="-150" type="line"/>
      <point x="359" y="78" type="line"/>
    </contour>
    <contour>
      <point x="314" y="0" type="move" name="_bottom"/>
    </contour>
    <contour>
      <point x="299" y="0" type="move" name="_bottomleft"/>
    </contour>
    <contour>
      <point x="309" y="0" type="move" name="_bottomright"/>
    </contour>
  </outline>
</glyph>
<glyph name="descStraight-cy" format="1">
  <advance width="600"/>
  <outline>
    <contour>
      <point x="223" y="74" type="line"/>
      <point x="223" y="0" type="line"/>
      <point x="259" y="0" type="line"/>
      <point x="274" y="-150" type="line"/>
      <point x="349" y="-150" type="line"/>
      <point x="349" y="74" type="line"/>
    </contour>
    <contour>
      <point x="304" y="0" type="move" name="_bottom"/>
    </contour>
    <contour>
      <point x="276" y="0" type="move" name="_bottomleft"/>
    </contour>
    <contour>
      <point x="279" y="0" type="move" name="_bottomright"/>
    </contour>
  </outline>
</glyph>
<glyph name="hungarumlaut.case" format="1">
  <advance width="600"/>
  <outline>
    <component base="hungarumlaut" yOffset="120"/>
    <contour>
      <point x="255" y="689" type="move" name="_top"/>
    </contour>
  </outline>
</glyph>
<glyph name="seven.dnom" format="1">
  <advance width="600"/>
  <outline>
    <contour>
      <point x="441" y="270" type="line"/>
      <point x="441" y="321" type="line"/>
      <point x="159" y="321" type="line"/>
      <point x="159" y="259" type="line"/>
      <point x="358" y="259" type="line"/>
      <point x="204" y="23" type="line"/>
      <point x="278" y="-8" type="line"/>
    </contour>
  </outline>
</glyph>
<glyph name="three.tosf" format="1">
  <advance width="600"/>
  <outline>
    <contour>
      <point x="197" y="574"/>
      <point x="135" y="548"/>
      <point x="78" y="495" type="curve"/>
      <point x="126" y="440" type="line"/>
      <point x="171" y="482"/>
      <point x="211" y="500"/>
      <point x="268" y="500" type="curve" smooth="yes"/>
      <point x="343" y="500"/>
      <point x="387" y="462"/>
      <point x="387" y="401" type="curve" smooth="yes"/>
      <point x="387" y="327"/>
      <point x="332" y="287"/>
      <point x="258" y="287" type="curve" smooth="yes"/>
      <point x="220" y="287" type="line"/>
      <point x="209" y="216" type="line"/>
      <point x="263" y="216" type="line" smooth="yes"/>
      <point x="352" y="216"/>
      <point x="404" y="178"/>
      <point x="404" y="92" type="curve" smooth="yes"/>
      <point x="404" y="10"/>
      <point x="353" y="-42"/>
      <point x="261" y="-42" type="curve" smooth="yes"/>
      <point x="203" y="-42"/>
      <point x="157" y="-22"/>
      <point x="115" y="25" type="curve"/>
      <point x="59" y="-27" type="line"/>
      <point x="110" y="-88"/>
      <point x="180" y="-117"/>
      <point x="264" y="-117" type="curve" smooth="yes"/>
      <point x="411" y="-117"/>
      <point x="500" y="-29"/>
      <point x="500" y="87" type="curve" smooth="yes"/>
      <point x="500" y="193"/>
      <point x="437" y="246"/>
      <point x="349" y="256" type="curve"/>
      <point x="423" y="273"/>
      <point x="479" y="328"/>
      <point x="479" y="407" type="curve" smooth="yes"/>
      <point x="479" y="495"/>
      <point x="409" y="574"/>
      <point x="276" y="574" type="curve" smooth="yes"/>
    </contour>
  </outline>
</glyph>
<glyph name="tonos.case" format="1">
  <advance width="600"/>
  <outline>
    <contour>
      <point x="296" y="504" type="line"/>
      <point x="374" y="689" type="line"/>
      <point x="274" y="705" type="line"/>
      <point x="226" y="516" type="line"/>
    </contour>
    <contour>
      <point x="384" y="689" type="move" name="_topleft"/>
    </contour>
  </outline>
</glyph>
<glyph name="two.tosf" format="1">
  <advance width="600"/>
  <outline>
    <contour>
      <point x="194" y="574"/>
      <point x="128" y="537"/>
      <point x="73" y="468" type="curve"/>
      <point x="132" y="420" type="line"/>
      <point x="180" y="478"/>
      <point x="225" y="499"/>
      <point x="284" y="499" type="curve" smooth="yes"/>
      <point x="354" y="499"/>
      <point x="402" y="458"/>
      <point x="402" y="394" type="curve" smooth="yes"/>
      <point x="402" y="314"/>
      <point x="371" y="269"/>
      <point x="87" y="73" type="curve"/>
      <point x="87" y="0" type="line"/>
      <point x="498" y="0" type="line"/>
      <point x="509" y="77" type="line"/>
      <point x="206" y="77" type="line"/>
      <point x="474" y="241"/>
      <point x="499" y="306"/>
      <point x="499" y="397" type="curve" smooth="yes"/>
      <point x="499" y="498"/>
      <point x="417" y="574"/>
      <point x="286" y="574" type="curve" smooth="yes"/>
    </contour>
  </outline>
</glyph>
<glyph name="zero.zero" format="1">
  <advance width="600"/>
  <outline>
    <contour>
      <point x="150" y="701"/>
      <point x="72" y="573"/>
      <point x="72" y="345" type="curve" smooth="yes"/>
      <point x="72" y="116"/>
      <point x="150" y="-12"/>
      <point x="300" y="-12" type="curve" smooth="yes"/>
      <point x="450" y="-12"/>
      <point x="528" y="116"/>
      <point x="528" y="345" type="curve" smooth="yes"/>
      <point x="528" y="573"/>
      <point x="450" y="701"/>
      <point x="300" y="701" type="curve" smooth="yes"/>
    </contour>
    <contour>
      <point x="394" y="628"/>
      <point x="433" y="551"/>
      <point x="433" y="345" type="curve" smooth="yes"/>
      <point x="433" y="143"/>
      <point x="384" y="61"/>
      <point x="300" y="61" type="curve" smooth="yes"/>
      <point x="207" y="61"/>
      <point x="167" y="138"/>
      <point x="167" y="345" type="curve" smooth="yes"/>
      <point x="167" y="546"/>
      <point x="217" y="628"/>
      <point x="300" y="628" type="curve" smooth="yes"/>
    </contour>
    <contour>
      <point x="175" y="152" type="line"/>
      <point x="208" y="92" type="line"/>
      <point x="423" y="529" type="line"/>
      <point x="399" y="604" type="line"/>
    </contour>
  </outline>
</glyph>
